<?xml version="1.0" encoding="UTF-8" standalone="no"?>
<svg
   viewBox="0 0 303.48909 35.999949"
   version="1.1"
   id="svg32"
   sodipodi:docname="navbar-logo.svg"
   inkscape:version="1.2 (dc2aedaf03, 2022-05-15)"
   inkscape:export-filename="navbar-logo.png"
   inkscape:export-xdpi="86.400002"
   inkscape:export-ydpi="86.400002"
   width="303.48911"
   height="35.99995"
   xmlns:inkscape="http://www.inkscape.org/namespaces/inkscape"
   xmlns:sodipodi="http://sodipodi.sourceforge.net/DTD/sodipodi-0.dtd"
   xmlns:xlink="http://www.w3.org/1999/xlink"
   xmlns="http://www.w3.org/2000/svg"
   xmlns:svg="http://www.w3.org/2000/svg">
  <defs
     id="defs36">
    <filter
       id="filter3889"
       x="-0.019502196"
       y="-0.031858649"
       width="1.0390044"
       height="1.0637172">
      <feGaussianBlur
         id="feGaussianBlur3891"
         stdDeviation="7.0719681" />
    </filter>
    <linearGradient
       id="linearGradient3287"
       y2="542.39001"
       gradientUnits="userSpaceOnUse"
       x2="1615"
       gradientTransform="matrix(0.03607036,0,0,0.03607036,-74.461839,-66.956273)"
       y1="434.95999"
       x1="1608.2">
      <stop
         id="stop3291"
         stop-color="#fff"
         offset="0" />
      <stop
         id="stop3293"
         stop-color="#e4e4dc"
         offset="1" />
    </linearGradient>
    <linearGradient
       id="linearGradient3751"
       y2="659.63"
       xlink:href="#linearGradient3745"
       gradientUnits="userSpaceOnUse"
       x2="745.47998"
       y1="639.17999"
       x1="745.42999"
       gradientTransform="matrix(0.11583661,0,0,0.11583661,-100.07911,-76.273128)" />
    <linearGradient
       id="linearGradient3745">
      <stop
         id="stop3747"
         stop-color="#575757"
         offset="0" />
      <stop
         id="stop3749"
         stop-color="#575757"
         stop-opacity="0"
         offset="1" />
    </linearGradient>
    <radialGradient
       id="radialGradient3786"
       gradientUnits="userSpaceOnUse"
       cy="471.41"
       cx="581.01001"
       gradientTransform="matrix(0.14557186,-0.06143858,0.06735667,0.15959968,-149.35599,-61.22248)"
       r="17.315001">
      <stop
         id="stop3782"
         stop-color="#e8b700"
         offset="0" />
      <stop
         id="stop3788"
         stop-color="#e2b500"
         offset=".45674" />
      <stop
         id="stop3784"
         stop-color="#ffe400"
         offset="1" />
    </radialGradient>
    <linearGradient
       id="linearGradient3755"
       y2="659.63"
       xlink:href="#linearGradient3745"
       gradientUnits="userSpaceOnUse"
       x2="745.47998"
       gradientTransform="matrix(0.07342419,0,0,0.07232258,-31.849031,-56.060801)"
       y1="642.85999"
       x1="744.03998" />
    <linearGradient
       id="linearGradient3792"
       y2="659.63"
       xlink:href="#linearGradient3745"
       gradientUnits="userSpaceOnUse"
       x2="745.47998"
       gradientTransform="matrix(-0.1145821,-0.01699902,-0.01699902,0.1145821,42.121909,-79.672817)"
       y1="639.17999"
       x1="745.42999" />
    <radialGradient
       id="radialGradient3843"
       gradientUnits="userSpaceOnUse"
       cy="471.41"
       cx="581.01001"
       gradientTransform="matrix(0.10102226,-0.04184482,0.04674239,0.10869875,-113.60303,-48.399364)"
       r="17.315001">
      <stop
         id="stop3847"
         stop-color="#e8b700"
         offset="0" />
      <stop
         id="stop3849"
         stop-color="#e2b500"
         offset=".45674" />
      <stop
         id="stop3851"
         stop-color="#ae9c00"
         offset="1" />
    </radialGradient>
    <filter
       id="filter3863"
       y="-0.10756653"
       width="1.1805265"
       height="1.2151331"
       x="-0.090263233">
      <feGaussianBlur
         id="feGaussianBlur3865"
         stdDeviation="0.619973" />
    </filter>
    <filter
       id="filter2914"
       y="-0.10756653"
       width="1.1805265"
       height="1.2151331"
       x="-0.090263233">
      <feGaussianBlur
         id="feGaussianBlur2912"
         stdDeviation="0.619973" />
    </filter>
    <filter
       id="filter2918"
       y="-0.10756653"
       width="1.1805265"
       height="1.2151331"
       x="-0.090263233">
      <feGaussianBlur
         id="feGaussianBlur2916"
         stdDeviation="0.619973" />
    </filter>
    <linearGradient
       id="linearGradient3751-9"
       y2="659.63"
       xlink:href="#linearGradient3745"
       gradientUnits="userSpaceOnUse"
       x2="745.47998"
       y1="639.17999"
       x1="745.42999"
       gradientTransform="matrix(0.29911427,0,0,0.29911427,-82.893599,-53.812352)" />
    <radialGradient
       id="radialGradient3786-8"
       gradientUnits="userSpaceOnUse"
       cy="471.41"
       cx="581.01001"
       gradientTransform="matrix(0.37589688,-0.15864722,0.17392896,0.41211963,-210.13677,-14.948442)"
       r="17.315001">
      <stop
         id="stop3782-9"
         stop-color="#e8b700"
         offset="0" />
      <stop
         id="stop3788-8"
         stop-color="#e2b500"
         offset=".45674" />
      <stop
         id="stop3784-9"
         stop-color="#ffe400"
         offset="1" />
    </radialGradient>
    <linearGradient
       id="linearGradient3755-5"
       y2="659.63"
       xlink:href="#linearGradient3745"
       gradientUnits="userSpaceOnUse"
       x2="745.47998"
       gradientTransform="matrix(0.18959656,0,0,0.18675197,93.290685,-1.6199113)"
       y1="642.85999"
       x1="744.03998" />
    <linearGradient
       id="linearGradient3792-7"
       y2="659.63"
       xlink:href="#linearGradient3745"
       gradientUnits="userSpaceOnUse"
       x2="745.47998"
       gradientTransform="matrix(-0.29587486,-0.04389501,-0.04389501,0.29587486,284.29907,-62.591057)"
       y1="639.17999"
       x1="745.42999" />
    <radialGradient
       id="radialGradient3843-3"
       gradientUnits="userSpaceOnUse"
       cy="471.41"
       cx="581.01001"
       gradientTransform="matrix(0.26086053,-0.10805205,0.12069859,0.28068283,-117.81518,18.163516)"
       r="17.315001">
      <stop
         id="stop3847-9"
         stop-color="#e8b700"
         offset="0" />
      <stop
         id="stop3849-7"
         stop-color="#e2b500"
         offset=".45674" />
      <stop
         id="stop3851-3"
         stop-color="#ae9c00"
         offset="1" />
    </radialGradient>
    <filter
       id="filter24187"
       y="-0.032088131"
       width="1.0538538"
       height="1.0641763"
       x="-0.026926924">
      <feGaussianBlur
         id="feGaussianBlur24185"
         stdDeviation="0.057681667" />
    </filter>
    <filter
       id="filter24191"
       y="-0.016585914"
       width="1.0278368"
       height="1.0331718"
       x="-0.013918378">
      <feGaussianBlur
         id="feGaussianBlur24189"
         stdDeviation="0.029815028" />
    </filter>
    <filter
       id="filter3863-5"
       y="-0.10830436"
       width="1.1817662"
       height="1.2166086"
       x="-0.090883099">
      <feGaussianBlur
         id="feGaussianBlur3865-1"
         stdDeviation="0.19468727" />
    </filter>
    <clipPath
       clipPathUnits="userSpaceOnUse"
       id="clipPath4417">
      <rect
         style="opacity:1;fill:none;stroke:#484848;stroke-width:0"
         id="rect4419"
         width="444.95242"
         height="382.4762"
         x="173.71428"
         y="188.95239" />
    </clipPath>
  </defs>
  <sodipodi:namedview
     id="namedview34"
     pagecolor="#ffffff"
     bordercolor="#000000"
     borderopacity="0.25"
     inkscape:showpageshadow="2"
     inkscape:pageopacity="0.0"
     inkscape:pagecheckerboard="0"
     inkscape:deskcolor="#d1d1d1"
     showgrid="false"
     inkscape:zoom="1.9593693"
     inkscape:cx="121.97803"
     inkscape:cy="2.0414733"
     inkscape:window-width="1366"
     inkscape:window-height="705"
     inkscape:window-x="-8"
     inkscape:window-y="-8"
     inkscape:window-maximized="1"
     inkscape:current-layer="svg32" />
  <style
     id="style2">.cls-1{fill:#fed136;}</style>
  <text
     xml:space="preserve"
     style="font-size:34.3852px;font-family:'Bauhaus 93';-inkscape-font-specification:'Bauhaus 93, ';text-align:center;text-anchor:middle;fill:#a8a800;fill-opacity:1;stroke:#000000;stroke-width:0.280895;stroke-dasharray:none"
     x="31.310669"
     y="30.353216"
     id="text297-9"><tspan
       sodipodi:role="line"
       id="tspan295-7"
       x="31.310669"
       y="30.353216"
       style="font-style:normal;font-variant:normal;font-weight:bold;font-stretch:normal;font-size:34.3852px;font-family:Shotgun;-inkscape-font-specification:'Shotgun Bold';fill:#a8a800;fill-opacity:1;stroke:#000000;stroke-width:0.280895;stroke-dasharray:none">THE</tspan></text>
  <path
     style="fill:none;stroke:#a8a800;stroke-width:0.867539;stroke-opacity:1"
     d="M 73.817693,35.317608 C 73.59955,35.181277 73.36148,34.955605 73.288645,34.816114 73.215805,34.676624 73.156219,33.879357 73.156219,33.04441 v -1.518082 l -0.587501,-0.117077 c -0.459492,-0.09156 -0.647074,-0.208075 -0.860918,-0.534715 -0.559577,-0.85474 -0.521583,-2.178958 0.08276,-2.884453 l 0.351798,-0.410681 0.006,-4.140342 c 0.0054,-3.75755 0.13134,-7.517288 0.331013,-9.88189 0.07479,-0.885702 0.07137,-0.898885 -0.412115,-1.585024 l -0.487531,-0.691896 -0.817243,0.03036 c -1.101777,0.04095 -1.216175,-0.12246 -1.216175,-1.7371256 0,-1.4794111 0.147404,-1.6940742 1.163281,-1.6940742 0.984341,0 1.077387,0.1566601 1.077387,1.8140042 V 11.04076 l 0.448404,0.08623 c 0.246622,0.04742 0.472862,0.06116 0.502753,0.03051 0.02989,-0.03064 0.24745,-0.805999 0.48346,-1.7230236 0.97508,-3.7886855 2.262589,-6.2238226 4.002209,-7.5695984 1.619966,-1.25321145 2.598062,-1.40435015 9.251993,-1.42965415 7.269719,-0.027645 9.281575,0.3387275 11.433353,2.08208355 1.736107,1.406576 3.045293,4.2496261 3.512073,7.6268256 0.1532,1.108474 0.15828,1.114297 0.84817,0.972874 l 0.389,-0.07975 V 9.6694934 c 0,-1.6403474 0.092,-1.7900854 1.09901,-1.7900854 0.99161,0 1.14166,0.2226555 1.14166,1.6940744 0,1.6114836 -0.11566,1.7780186 -1.20671,1.7374776 -0.77053,-0.02863 -0.82172,-0.01175 -1.11003,0.365829 -0.75365,0.987024 -0.88306,1.367468 -0.77582,2.280589 0.20696,1.761959 0.3527,5.73356 0.35333,9.627718 6.5e-4,3.884163 0.01,4.039727 0.25249,4.264823 0.35195,0.326461 0.66512,1.503829 0.56712,2.132042 -0.13727,0.879802 -0.39127,1.232515 -1.00969,1.402048 l -0.55617,0.152467 -2.9e-4,1.281334 c -3.7e-4,2.120547 -0.48464,2.67962 -2.241926,2.587941 -1.577231,-0.08229 -1.865673,-0.445332 -1.865673,-2.34832 V 31.83634 l -0.902488,0.0813 c -4.617581,0.415949 -14.622609,0.417985 -18.409138,0.0037 l -0.701635,-0.07676 -0.04763,1.426373 -0.04763,1.426376 -0.462601,0.434525 c -0.448334,0.421127 -0.494321,0.434512 -1.491397,0.43405 -0.799021,-3.83e-4 -1.117386,-0.05584 -1.425422,-0.248353 z"
     id="path2052-4" />
  <path
     style="fill:none;stroke:#a8a800;stroke-width:0.867539;stroke-opacity:1"
     d="m 100.0538,17.841248 c 0.78168,-0.801201 0.30378,-2.051254 -0.784206,-2.051254 -0.95827,0 -1.553719,1.109259 -1.01703,1.894622 0.4281,0.626452 1.27133,0.699776 1.801236,0.156632 z"
     id="path2082-5" />
  <path
     style="fill:none;stroke:#a8a800;stroke-width:0.867539;stroke-opacity:1"
     d="m 75.566035,18.071604 c 0.424135,-0.198072 0.760809,-0.876678 0.653124,-1.316443 -0.310344,-1.267383 -2.075642,-1.28963 -2.384075,-0.03005 -0.0463,0.189088 0.0051,0.498817 0.125961,0.760023 0.305879,0.660688 0.945556,0.894427 1.60499,0.586466 z"
     id="path2080-3" />
  <path
     style="fill:none;stroke:#a8a800;stroke-width:0.867539;stroke-opacity:1"
     d="m 98.722734,24.437745 c 0.30789,-0.09372 0.73728,-0.386495 1.07598,-0.733641 1.119186,-1.147139 1.160326,-2.724587 0.10177,-3.901676 -1.66812,-1.854873 -4.630944,-0.846478 -4.812205,1.637823 -0.154408,2.116139 1.647534,3.602277 3.634455,2.997494 z"
     id="path2078-1" />
  <path
     style="fill:none;stroke:#a8a800;stroke-width:0.867539;stroke-opacity:1"
     d="m 77.311909,24.437745 c 0.67096,-0.204229 1.629997,-1.178391 1.808387,-1.836906 0.195868,-0.723047 0.161118,-1.446146 -0.09738,-2.026222 -0.98417,-2.208518 -4.00439,-2.30966 -5.045159,-0.168955 -1.121928,2.307635 0.913336,4.768937 3.33415,4.032083 z"
     id="path2076-7" />
  <path
     style="fill:#ffffff;stroke:#a8a800;stroke-width:0.867539;stroke-opacity:1"
     d="m 87.836328,25.538189 c 2.489904,-5.51057 6.495762,-9.663191 11.698576,-12.127183 0.781076,-0.369908 1.476226,-0.730054 1.544776,-0.800324 0.17675,-0.181163 -0.10369,-3.3837416 -0.41136,-4.6976529 C 99.813144,4.260988 97.727176,1.9715332 94.483586,1.1249678 92.704612,0.66066125 84.167948,0.54356515 80.687352,0.93572635 76.719978,1.3827326 74.405032,4.5854563 73.278814,11.185421 c -0.136644,0.800774 -0.234132,1.468866 -0.216639,1.48465 0.01749,0.01579 0.718201,0.380272 1.557132,0.809974 6.443885,3.300575 10.117304,6.968614 12.056337,12.038684 0.261669,0.684201 0.505793,1.243085 0.542496,1.241962 0.0367,-0.0011 0.314888,-0.551248 0.618188,-1.222502 z"
     id="path2056-8" />
  <path
     style="fill:none;stroke:#a8a800;stroke-width:0.867539;stroke-opacity:1"
     d="m 86.345108,20.470052 c -1.701867,-0.486731 -2.780413,-1.930967 -2.780413,-3.723133 0,-3.516876 4.246405,-5.170134 6.509867,-2.534494 1.216659,1.416713 1.216659,3.652276 0,5.068988 -0.89459,1.041686 -2.478344,1.546455 -3.729454,1.188639 z"
     id="path2058-3" />
  <path
     style="fill:none;stroke:#a8a800;stroke-width:0.867539;stroke-opacity:1"
     d="m 94.94049,31.863349 c 3.210944,-0.213513 7.07428,-0.61438 7.34331,-0.761956 0.37916,-0.207993 0.49925,-0.553435 0.49628,-1.427602 -0.002,-0.526717 -0.0885,-0.999584 -0.25036,-1.365228 l -0.24764,-0.559404 -0.58988,0.0857 c -5.063314,0.735614 -13.578882,1.112875 -19.476,0.862836 -4.100902,-0.173879 -5.472996,-0.287697 -8.053594,-0.668067 -1.768626,-0.260687 -1.799077,-0.260984 -2.116187,-0.02068 -0.489932,0.371263 -0.699785,1.180884 -0.519779,2.005324 0.235458,1.078409 0.399912,1.167797 2.563191,1.393192 5.262947,0.548354 8.834028,0.708268 14.377617,0.643834 2.430501,-0.02825 5.343366,-0.112823 6.473042,-0.187942 z"
     id="path2054-8" />
  <path
     style="fill:none;stroke:#a8a800;stroke-width:0.867539;stroke-opacity:1"
     d="M 87.596077,7.6242368 V 4.0517182 h 4.892171 4.892173 l 0.694113,0.6340965 c 1.3824,1.2628891 1.89344,2.5116376 2.024856,4.9479637 l 0.0843,1.5629766 H 93.889879 87.59606 Z"
     id="path2074-4" />
  <path
     style="fill:none;stroke:#a8a800;stroke-width:0.867539;stroke-opacity:1"
     d="m 74.232236,9.8251644 c 0.119717,-2.4801763 0.573163,-3.6815227 1.878178,-4.9760093 l 0.803924,-0.7974369 h 4.905183 4.905186 v 3.5725186 3.5725182 h -6.27934 -6.279338 z"
     id="path2072-1" />
  <path
     style="fill:none;stroke:#a8a800;stroke-width:0.867539;stroke-opacity:1"
     d="m 87.766577,14.935711 c 0.489489,-1.172174 0.482248,-1.188583 -0.523005,-1.185203 -0.885206,0.003 -0.921174,0.07211 -0.530626,1.019843 0.187722,0.455542 0.380515,0.936953 0.428429,1.069802 0.113833,0.315615 0.118595,0.308726 0.625202,-0.904442 z"
     id="path2070-5" />
  <path
     style="fill:none;stroke:#a8a800;stroke-width:0.867539;stroke-opacity:1"
     d="m 89.75809,18.301573 c 0.196365,-0.322898 0.385311,-0.844265 0.419877,-1.158592 0.07275,-0.661613 -0.06274,-1.56632 -0.209905,-1.401503 -0.103545,0.115965 -1.12717,3.215896 -1.12717,3.413502 0,0.240935 0.579711,-0.298457 0.917198,-0.853407 z"
     id="path2064-8" />
  <path
     style="fill:none;stroke:#a8a800;stroke-width:0.867539;stroke-opacity:1"
     d="m 85.227085,17.488585 c -0.618818,-1.917414 -0.632943,-1.947811 -0.755771,-1.626326 -0.209503,0.548347 -0.11578,1.528026 0.210356,2.198837 0.296406,0.609664 0.883654,1.256381 1.016865,1.119843 0.03089,-0.03166 -0.181267,-0.793217 -0.47145,-1.692354 z"
     id="path2062-2" />
  <path
     style="fill:none;stroke:#a8a800;stroke-width:0.867539;stroke-opacity:1"
     d="m 88.021581,19.667837 c 0.108297,-0.04259 0.196904,-0.142377 0.196904,-0.221739 0,-0.176341 -0.905898,-2.387345 -0.95678,-2.335193 -0.01996,0.02046 -0.257587,0.578507 -0.528055,1.240097 -0.437806,1.070922 -0.468685,1.21241 -0.281472,1.28962 0.268296,0.110648 1.311292,0.128735 1.569403,0.02722 z"
     id="path2060-2" />
  <path
     style="fill:none;stroke:#a8a800;stroke-width:0.867539;stroke-opacity:1"
     d="m 89.137745,16.987342 c 0.596078,-1.847603 0.599495,-1.867691 0.370231,-2.17696 -0.12727,-0.171682 -0.402659,-0.422044 -0.611977,-0.556361 l -0.38058,-0.244213 -0.528582,1.28707 -0.528583,1.287071 0.468527,1.134102 c 0.257688,0.623757 0.500207,1.134102 0.538929,1.134102 0.03872,0 0.341137,-0.839166 0.672035,-1.864811 z"
     id="path2068-6" />
  <path
     style="fill:none;stroke:#a8a800;stroke-width:0.867539;stroke-opacity:1"
     d="m 86.629437,17.709951 0.464896,-1.139632 -0.536459,-1.28561 -0.53646,-1.28561 -0.509153,0.378039 c -0.280035,0.207922 -0.546119,0.497414 -0.591297,0.643314 -0.0835,0.26965 0.996111,3.83296 1.160537,3.830416 0.04567,-7.65e-4 0.292242,-0.514119 0.547936,-1.140917 z"
     id="path2066-5" />
  <text
     xml:space="preserve"
     style="font-size:34.3852px;font-family:'Bauhaus 93';-inkscape-font-specification:'Bauhaus 93, ';text-align:center;text-anchor:middle;opacity:1;fill:#a8a800;fill-opacity:1;stroke:#000000;stroke-width:0.280895;stroke-dasharray:none"
     x="207.60303"
     y="30.353216"
     id="text297"><tspan
       sodipodi:role="line"
       id="tspan295"
       x="207.60303"
       y="30.353216"
       style="font-style:normal;font-variant:normal;font-weight:bold;font-stretch:normal;font-size:34.3852px;font-family:Shotgun;-inkscape-font-specification:'Shotgun Bold';fill:#a8a800;fill-opacity:1;stroke:#000000;stroke-width:0.280895;stroke-dasharray:none">CAMPERTRY</tspan></text>
</svg>
