<?xml version="1.0" encoding="UTF-8" standalone="no"?>
<svg
   viewBox="0 0 299.82073 36.000025"
   version="1.1"
   id="svg32"
   sodipodi:docname="navbar-logo.svg"
   inkscape:version="1.2 (dc2aedaf03, 2022-05-15)"
   inkscape:export-filename="navbar-logo.png"
   inkscape:export-xdpi="86.400002"
   inkscape:export-ydpi="86.400002"
   width="299.82074"
   height="36.000027"
   xmlns:inkscape="http://www.inkscape.org/namespaces/inkscape"
   xmlns:sodipodi="http://sodipodi.sourceforge.net/DTD/sodipodi-0.dtd"
   xmlns:xlink="http://www.w3.org/1999/xlink"
   xmlns="http://www.w3.org/2000/svg"
   xmlns:svg="http://www.w3.org/2000/svg">
  <defs
     id="defs36">
    <filter
       id="filter3889"
       x="-0.019502196"
       y="-0.031858649"
       width="1.0390044"
       height="1.0637172">
      <feGaussianBlur
         id="feGaussianBlur3891"
         stdDeviation="7.0719681" />
    </filter>
    <linearGradient
       id="linearGradient3287"
       y2="542.39001"
       gradientUnits="userSpaceOnUse"
       x2="1615"
       gradientTransform="matrix(0.03607036,0,0,0.03607036,-74.461839,-66.956273)"
       y1="434.95999"
       x1="1608.2">
      <stop
         id="stop3291"
         stop-color="#fff"
         offset="0" />
      <stop
         id="stop3293"
         stop-color="#e4e4dc"
         offset="1" />
    </linearGradient>
    <linearGradient
       id="linearGradient3751"
       y2="659.63"
       xlink:href="#linearGradient3745"
       gradientUnits="userSpaceOnUse"
       x2="745.47998"
       y1="639.17999"
       x1="745.42999"
       gradientTransform="matrix(0.11583661,0,0,0.11583661,-100.07911,-76.273128)" />
    <linearGradient
       id="linearGradient3745">
      <stop
         id="stop3747"
         stop-color="#575757"
         offset="0" />
      <stop
         id="stop3749"
         stop-color="#575757"
         stop-opacity="0"
         offset="1" />
    </linearGradient>
    <radialGradient
       id="radialGradient3786"
       gradientUnits="userSpaceOnUse"
       cy="471.41"
       cx="581.01001"
       gradientTransform="matrix(0.14557186,-0.06143858,0.06735667,0.15959968,-149.35599,-61.22248)"
       r="17.315001">
      <stop
         id="stop3782"
         stop-color="#e8b700"
         offset="0" />
      <stop
         id="stop3788"
         stop-color="#e2b500"
         offset=".45674" />
      <stop
         id="stop3784"
         stop-color="#ffe400"
         offset="1" />
    </radialGradient>
    <linearGradient
       id="linearGradient3755"
       y2="659.63"
       xlink:href="#linearGradient3745"
       gradientUnits="userSpaceOnUse"
       x2="745.47998"
       gradientTransform="matrix(0.07342419,0,0,0.07232258,-31.849031,-56.060801)"
       y1="642.85999"
       x1="744.03998" />
    <linearGradient
       id="linearGradient3792"
       y2="659.63"
       xlink:href="#linearGradient3745"
       gradientUnits="userSpaceOnUse"
       x2="745.47998"
       gradientTransform="matrix(-0.1145821,-0.01699902,-0.01699902,0.1145821,42.121909,-79.672817)"
       y1="639.17999"
       x1="745.42999" />
    <radialGradient
       id="radialGradient3843"
       gradientUnits="userSpaceOnUse"
       cy="471.41"
       cx="581.01001"
       gradientTransform="matrix(0.10102226,-0.04184482,0.04674239,0.10869875,-113.60303,-48.399364)"
       r="17.315001">
      <stop
         id="stop3847"
         stop-color="#e8b700"
         offset="0" />
      <stop
         id="stop3849"
         stop-color="#e2b500"
         offset=".45674" />
      <stop
         id="stop3851"
         stop-color="#ae9c00"
         offset="1" />
    </radialGradient>
    <filter
       id="filter3863"
       y="-0.10756653"
       width="1.1805265"
       height="1.2151331"
       x="-0.090263233">
      <feGaussianBlur
         id="feGaussianBlur3865"
         stdDeviation="0.619973" />
    </filter>
    <filter
       id="filter2914"
       y="-0.10756653"
       width="1.1805265"
       height="1.2151331"
       x="-0.090263233">
      <feGaussianBlur
         id="feGaussianBlur2912"
         stdDeviation="0.619973" />
    </filter>
    <filter
       id="filter2918"
       y="-0.10756653"
       width="1.1805265"
       height="1.2151331"
       x="-0.090263233">
      <feGaussianBlur
         id="feGaussianBlur2916"
         stdDeviation="0.619973" />
    </filter>
    <linearGradient
       id="linearGradient3751-9"
       y2="659.63"
       xlink:href="#linearGradient3745"
       gradientUnits="userSpaceOnUse"
       x2="745.47998"
       y1="639.17999"
       x1="745.42999"
       gradientTransform="matrix(0.29911427,0,0,0.29911427,-82.893599,-53.812352)" />
    <radialGradient
       id="radialGradient3786-8"
       gradientUnits="userSpaceOnUse"
       cy="471.41"
       cx="581.01001"
       gradientTransform="matrix(0.37589688,-0.15864722,0.17392896,0.41211963,-210.13677,-14.948442)"
       r="17.315001">
      <stop
         id="stop3782-9"
         stop-color="#e8b700"
         offset="0" />
      <stop
         id="stop3788-8"
         stop-color="#e2b500"
         offset=".45674" />
      <stop
         id="stop3784-9"
         stop-color="#ffe400"
         offset="1" />
    </radialGradient>
    <linearGradient
       id="linearGradient3755-5"
       y2="659.63"
       xlink:href="#linearGradient3745"
       gradientUnits="userSpaceOnUse"
       x2="745.47998"
       gradientTransform="matrix(0.18959656,0,0,0.18675197,93.290685,-1.6199113)"
       y1="642.85999"
       x1="744.03998" />
    <linearGradient
       id="linearGradient3792-7"
       y2="659.63"
       xlink:href="#linearGradient3745"
       gradientUnits="userSpaceOnUse"
       x2="745.47998"
       gradientTransform="matrix(-0.29587486,-0.04389501,-0.04389501,0.29587486,284.29907,-62.591057)"
       y1="639.17999"
       x1="745.42999" />
    <radialGradient
       id="radialGradient3843-3"
       gradientUnits="userSpaceOnUse"
       cy="471.41"
       cx="581.01001"
       gradientTransform="matrix(0.26086053,-0.10805205,0.12069859,0.28068283,-117.81518,18.163516)"
       r="17.315001">
      <stop
         id="stop3847-9"
         stop-color="#e8b700"
         offset="0" />
      <stop
         id="stop3849-7"
         stop-color="#e2b500"
         offset=".45674" />
      <stop
         id="stop3851-3"
         stop-color="#ae9c00"
         offset="1" />
    </radialGradient>
    <filter
       id="filter24187"
       y="-0.032088131"
       width="1.0538538"
       height="1.0641763"
       x="-0.026926924">
      <feGaussianBlur
         id="feGaussianBlur24185"
         stdDeviation="0.057681667" />
    </filter>
    <filter
       id="filter24191"
       y="-0.016585914"
       width="1.0278368"
       height="1.0331718"
       x="-0.013918378">
      <feGaussianBlur
         id="feGaussianBlur24189"
         stdDeviation="0.029815028" />
    </filter>
    <filter
       id="filter3863-5"
       y="-0.10830436"
       width="1.1817662"
       height="1.2166086"
       x="-0.090883099">
      <feGaussianBlur
         id="feGaussianBlur3865-1"
         stdDeviation="0.19468727" />
    </filter>
    <clipPath
       clipPathUnits="userSpaceOnUse"
       id="clipPath4417">
      <rect
         style="opacity:1;fill:none;stroke:#484848;stroke-width:0"
         id="rect4419"
         width="444.95242"
         height="382.4762"
         x="173.71428"
         y="188.95239" />
    </clipPath>
  </defs>
  <sodipodi:namedview
     id="namedview34"
     pagecolor="#ffffff"
     bordercolor="#000000"
     borderopacity="0.25"
     inkscape:showpageshadow="2"
     inkscape:pageopacity="0.0"
     inkscape:pagecheckerboard="0"
     inkscape:deskcolor="#d1d1d1"
     showgrid="false"
     inkscape:zoom="2.9580948"
     inkscape:cx="147.73022"
     inkscape:cy="33.805543"
     inkscape:window-width="1366"
     inkscape:window-height="705"
     inkscape:window-x="-8"
     inkscape:window-y="-8"
     inkscape:window-maximized="1"
     inkscape:current-layer="svg32" />
  <style
     id="style2">.cls-1{fill:#fed136;}</style>
  <text
     xml:space="preserve"
     style="font-size:33.0515px;font-family:'Bauhaus 93';-inkscape-font-specification:'Bauhaus 93, ';text-align:center;text-anchor:middle;fill:#ffffff;fill-opacity:1;stroke:#1a1a1a;stroke-width:1.5;stroke-dasharray:none"
     x="30.581882"
     y="30.725822"
     id="text297-9"><tspan
       sodipodi:role="line"
       id="tspan295-7"
       x="30.581881"
       y="30.725822"
       style="font-style:normal;font-variant:normal;font-weight:bold;font-stretch:normal;font-size:33.0515px;font-family:Roboto;-inkscape-font-specification:'Roboto Bold';fill:#ffffff;fill-opacity:1;stroke:#1a1a1a;stroke-width:1.5;stroke-dasharray:none">THE</tspan></text>
  <path
     style="fill:#1a1a1a;stroke-width:0.0980558"
     d="m 71.653708,35.745468 c -0.22911,-0.139699 -0.47916,-0.370945 -0.55565,-0.513882 -0.0765,-0.142936 -0.13909,-0.959896 -0.13909,-1.815467 v -1.555581 l -0.61705,-0.119968 c -0.48259,-0.09383 -0.67961,-0.213216 -0.90421,-0.547924 -0.58772,-0.875854 -0.54781,-2.232781 0.0869,-2.955703 l 0.36949,-0.420825 0.006,-4.242614 c 0.005,-3.850367 0.13794,-7.702975 0.34766,-10.125986 0.0786,-0.907579 0.075,-0.921088 -0.43284,-1.624177 l -0.51205,-0.708985 -0.85834,0.03111 c -1.15718,0.04195 -1.27733,-0.125485 -1.27733,-1.7800344 0,-1.5159551 0.15481,-1.7359207 1.22177,-1.7359207 1.03385,0 1.13157,0.1605297 1.13157,1.858812 V 10.86895 l 0.47095,0.08835 c 0.25903,0.04859 0.49665,0.06267 0.52804,0.03128 0.0314,-0.03139 0.25989,-0.825908 0.50777,-1.7655839 1.02412,-3.8822715 2.37638,-6.3775596 4.20348,-7.7565779 1.70143,-1.28416751 2.72872,-1.43903944 9.71727,-1.46496844 7.63531,-0.02832746 9.74834,0.34709444 12.00833,2.13351364 1.82341,1.4413203 3.198442,4.3545975 3.688682,7.8152186 0.16091,1.135855 0.16625,1.141821 0.89083,0.996905 l 0.40857,-0.08171 V 9.4638252 c 0,-1.6808669 0.0966,-1.8343032 1.15428,-1.8343032 1.04147,0 1.19907,0.2281552 1.19907,1.7359207 0,1.6512893 -0.12148,1.8219383 -1.2674,1.7803953 -0.80927,-0.02934 -0.86305,-0.01204 -1.16586,0.374866 -0.79154,1.011404 -0.92746,1.401246 -0.81482,2.336922 0.21736,1.805481 0.37044,5.875186 0.37109,9.865535 6.9e-4,3.980106 0.0104,4.139513 0.26519,4.370171 0.36965,0.334524 0.69857,1.540974 0.59564,2.184706 -0.14416,0.901533 -0.41095,1.262959 -1.06047,1.436679 l -0.58414,0.156233 -2.9e-4,1.312985 c -3.9e-4,2.172927 -0.50902,2.74581 -2.354682,2.651866 -1.65655,-0.08432 -1.9595,-0.456332 -1.9595,-2.406326 v -1.251254 l -0.94788,0.0833 c -4.84979,0.426223 -15.35796,0.42831 -19.33491,0.0039 l -0.73691,-0.07865 -0.05,1.461607 -0.05,1.46161 -0.48586,0.445258 c -0.47089,0.43153 -0.51918,0.445245 -1.5664,0.444771 -0.83921,-3.91e-4 -1.17359,-0.05722 -1.49711,-0.254486 z"
     id="path2052-4" />
  <path
     style="fill:#ffffff;stroke-width:0.0980558"
     d="m 99.209208,17.837418 c 0.821002,-0.820992 0.31905,-2.101922 -0.82365,-2.101922 -1.00646,0 -1.63184,1.13666 -1.06816,1.941421 0.44962,0.641927 1.33525,0.717063 1.89181,0.160501 z"
     id="path2082-5" />
  <path
     style="fill:#ffffff;stroke-width:0.0980558"
     d="m 73.489978,18.073466 c 0.44546,-0.202966 0.79906,-0.898335 0.68596,-1.348962 -0.32595,-1.29869 -2.18003,-1.321486 -2.50397,-0.03079 -0.0486,0.193759 0.005,0.51114 0.1323,0.778798 0.32126,0.677008 0.9931,0.91652 1.68571,0.600952 z"
     id="path2080-3" />
  <path
     style="fill:#ffffff;stroke-width:0.0980558"
     d="m 97.811198,24.596859 c 0.32338,-0.09603 0.77437,-0.396042 1.13009,-0.751764 1.175472,-1.175474 1.218692,-2.791888 0.10688,-3.998053 -1.75199,-1.90069 -4.86383,-0.867386 -5.0542,1.678279 -0.16216,2.168411 1.73039,3.691259 3.81723,3.071538 z"
     id="path2078-1" />
  <path
     style="fill:#ffffff;stroke-width:0.0980558"
     d="m 75.323638,24.596859 c 0.7047,-0.209275 1.71197,-1.2075 1.89934,-1.882281 0.20572,-0.740908 0.16921,-1.481868 -0.10228,-2.076272 -1.03366,-2.263072 -4.20577,-2.366712 -5.29887,-0.173128 -1.17835,2.364636 0.95926,4.886736 3.50181,4.131681 z"
     id="path2076-7" />
  <path
     style="fill:#ffffff;stroke-width:0.0980558"
     d="m 86.377328,25.724485 c 2.61512,-5.646689 6.82242,-9.901886 12.28689,-12.426741 0.82036,-0.379046 1.550462,-0.748087 1.622472,-0.820093 0.18563,-0.185638 -0.10891,-3.4673246 -0.432052,-4.8136913 -0.89819,-3.7422512 -3.08906,-6.0882586 -6.49577,-6.95573528 -1.86844,-0.47577556 -10.8344,-0.59576399 -14.49003,-0.19391595 -4.16689,0.45804794 -6.59825,3.73988313 -7.78111,10.50287553 -0.14352,0.820555 -0.24591,1.505149 -0.22753,1.521323 0.0184,0.01617 0.75431,0.389665 1.63543,0.829982 6.76795,3.382102 10.6261,7.140747 12.66265,12.336054 0.27482,0.701102 0.53122,1.27379 0.56977,1.27264 0.0385,-0.0012 0.33072,-0.564863 0.64928,-1.252698 z"
     id="path2056-8" />
  <path
     style="fill:#000000;stroke-width:0.0980558"
     d="m 84.811108,20.531158 c -1.78745,-0.498754 -2.92023,-1.978664 -2.92023,-3.8151 0,-3.603747 4.45995,-5.297843 6.83725,-2.597099 1.27783,1.451708 1.27783,3.742491 0,5.194199 -0.93959,1.067417 -2.60298,1.584655 -3.91702,1.218 z"
     id="path2058-3" />
  <path
     style="fill:#ffffff;stroke-width:0.0980558"
     d="m 93.838748,32.205885 c 3.37242,-0.218787 7.430042,-0.629557 7.712602,-0.780779 0.39823,-0.213129 0.52437,-0.567104 0.52125,-1.462866 -0.002,-0.539726 -0.093,-1.024274 -0.26296,-1.39895 l -0.26008,-0.573222 -0.61955,0.08781 c -5.317952,0.753785 -14.261772,1.140364 -20.455442,0.884149 -4.30713,-0.178174 -5.74823,-0.294805 -8.4586,-0.684569 -1.85757,-0.267126 -1.88955,-0.267432 -2.22261,-0.0212 -0.51457,0.380434 -0.73498,1.210053 -0.54592,2.054858 0.2473,1.105046 0.42002,1.196642 2.69209,1.427605 5.52762,0.561899 9.27828,0.725763 15.10066,0.659737 2.55273,-0.02894 5.61208,-0.11561 6.79856,-0.192583 z"
     id="path2054-8" />
  <path
     style="fill:#1a1a1a;stroke-width:0.0980558"
     d="M 86.124988,7.3680339 V 3.7072694 h 5.1382 5.13819 l 0.72902,0.6497596 c 1.45193,1.294084 1.98866,2.5736782 2.12669,5.0701851 l 0.0886,1.6015839 h -6.61033 -6.61033 z"
     id="path2074-4" />
  <path
     style="fill:#1a1a1a;stroke-width:0.0980558"
     d="m 72.089098,9.6233267 c 0.12574,-2.5414394 0.60198,-3.7724605 1.97263,-5.0989227 l 0.84435,-0.8171346 h 5.15186 5.15186 v 3.6607645 3.6607641 h -6.59512 -6.59512 z"
     id="path2072-1" />
  <path
     style="fill:#ffffff;stroke-width:0.0980558"
     d="m 86.304068,14.860112 c 0.5141,-1.201129 0.5065,-1.217943 -0.54931,-1.21448 -0.92972,0.0031 -0.9675,0.07389 -0.5573,1.045035 0.19716,0.466795 0.39964,0.960097 0.44997,1.096228 0.11955,0.323411 0.12456,0.316351 0.65664,-0.926783 z"
     id="path2070-5" />
  <path
     style="fill:#ffffff;stroke-width:0.0980558"
     d="m 88.395738,18.309114 c 0.20623,-0.330874 0.40468,-0.86512 0.44099,-1.18721 0.0764,-0.677956 -0.0659,-1.605011 -0.22047,-1.436123 -0.10874,0.11883 -1.18385,3.295334 -1.18385,3.497821 0,0.246887 0.60886,-0.30583 0.96333,-0.874488 z"
     id="path2064-8" />
  <path
     style="fill:#ffffff;stroke-width:0.0980558"
     d="m 83.636868,17.476044 c -0.64994,-1.964776 -0.66477,-1.995924 -0.79378,-1.666498 -0.22004,0.561891 -0.1216,1.56577 0.22094,2.253151 0.3113,0.624724 0.92808,1.287416 1.068,1.147505 0.0324,-0.03244 -0.19039,-0.81281 -0.49516,-1.734158 z"
     id="path2062-2" />
  <path
     style="fill:#ffffff;stroke-width:0.0980558"
     d="m 86.571898,19.709127 c 0.11374,-0.04365 0.2068,-0.145894 0.2068,-0.227216 0,-0.180698 -0.95145,-2.446316 -1.00489,-2.392875 -0.021,0.02097 -0.27054,0.592796 -0.55461,1.270729 -0.45983,1.097375 -0.49226,1.242358 -0.29563,1.321475 0.28179,0.113382 1.37724,0.131915 1.64833,0.02789 z"
     id="path2060-2" />
  <path
     style="fill:#ffffff;stroke-width:0.0980558"
     d="m 87.744188,16.96242 c 0.62606,-1.89324 0.62964,-1.913826 0.38886,-2.230734 -0.13368,-0.175922 -0.42291,-0.432468 -0.64276,-0.570104 l -0.39972,-0.250245 -0.55517,1.318863 -0.55516,1.318862 0.49209,1.162116 c 0.27065,0.639165 0.52536,1.162116 0.56603,1.162116 0.0407,0 0.3583,-0.859893 0.70583,-1.910874 z"
     id="path2068-6" />
  <path
     style="fill:#ffffff;stroke-width:0.0980558"
     d="m 85.109738,17.702878 0.48828,-1.167782 -0.56344,-1.317365 -0.56343,-1.317367 -0.53476,0.387377 c -0.29412,0.213058 -0.57358,0.5097 -0.62104,0.659204 -0.0877,0.276311 1.0462,3.92764 1.2189,3.925033 0.048,-7.84e-4 0.30694,-0.52682 0.57549,-1.1691 z"
     id="path2066-5" />
  <text
     xml:space="preserve"
     style="font-size:33.0515px;font-family:'Bauhaus 93';-inkscape-font-specification:'Bauhaus 93, ';text-align:center;text-anchor:middle;opacity:1;fill:#ffffff;fill-opacity:1;stroke:#1a1a1a;stroke-width:1.5;stroke-dasharray:none"
     x="203.63615"
     y="30.725822"
     id="text297"><tspan
       sodipodi:role="line"
       id="tspan295"
       x="203.63615"
       y="30.725822"
       style="font-style:normal;font-variant:normal;font-weight:normal;font-stretch:normal;font-size:33.0515px;font-family:Roboto;-inkscape-font-specification:Roboto;fill:#ffffff;fill-opacity:1;stroke:#1a1a1a;stroke-width:1.5;stroke-dasharray:none">CAMPERTRY</tspan></text>
</svg>
